<?xml version="1.0" standalone="no"?>
<!DOCTYPE svg PUBLIC "-//W3C//DTD SVG 20010904//EN"
 "http://www.w3.org/TR/2001/REC-SVG-20010904/DTD/svg10.dtd">
<svg version="1.0" xmlns="http://www.w3.org/2000/svg"
 width="160.000000pt" height="160.000000pt" viewBox="0 0 160.000000 160.000000"
 preserveAspectRatio="xMidYMid meet">
<metadata>
Created by potrace 1.11, written by Peter Selinger 2001-2013
</metadata>
<g transform="translate(0.000000,160.000000) scale(0.100000,-0.100000)"
fill="#000000" stroke="none">
<path d="M728 1567 c-122 -55 -130 -220 -13 -277 158 -76 322 75 234 216 -38
63 -148 93 -221 61z m151 -46 c55 -40 65 -135 18 -178 -51 -46 -95 -54 -154
-27 -44 21 -65 54 -65 99 0 54 19 89 59 112 44 26 101 23 142 -6z"/>
<path d="M747 1203 c-3 -4 -84 -208 -181 -453 -230 -582 -243 -608 -303 -631
-12 -5 -23 -15 -23 -22 0 -11 34 -14 166 -14 145 -1 165 1 162 14 -2 11 -16
17 -41 18 -68 5 -107 47 -107 116 0 31 36 149 71 229 l20 46 173 2 174 1 15
-42 c106 -290 113 -318 79 -336 -16 -8 -49 -16 -84 -20 -5 -1 -8 -7 -8 -14 0
-11 47 -14 245 -14 183 0 245 3 245 12 0 6 -11 17 -24 23 -41 18 -71 71 -129
222 -30 80 -112 291 -182 470 -69 179 -132 341 -139 360 -13 34 -16 35 -69 38
-30 2 -57 -1 -60 -5z m66 -570 l35 -93 -165 0 c-90 0 -162 4 -159 8 3 5 35 85
71 178 37 93 74 184 82 202 l16 34 42 -119 c23 -65 58 -160 78 -210z"/>
</g>
</svg>
