<?xml version="1.0" encoding="utf-8"?>
<!-- Generator: Adobe Illustrator 17.1.0, SVG Export Plug-In . SVG Version: 6.00 Build 0)  -->
<!DOCTYPE svg PUBLIC "-//W3C//DTD SVG 1.1//EN" "http://www.w3.org/Graphics/SVG/1.1/DTD/svg11.dtd">
<svg version="1.1" id="Layer_1" xmlns="http://www.w3.org/2000/svg" xmlns:xlink="http://www.w3.org/1999/xlink" x="0px" y="0px"
	 viewBox="0 0 104 93" enable-background="new 0 0 104 93" xml:space="preserve">
<g>
	<path fill="none" stroke="#858584" stroke-linecap="round" stroke-linejoin="round" stroke-miterlimit="10" d="M89.5,89.4
		l-43.9-0.3c-3.3,0-5.9-2.7-5.9-6l0-1.6"/>
	<path fill="none" stroke="#858584" stroke-linecap="round" stroke-linejoin="round" stroke-miterlimit="10" d="M40,51l0.3-44.8
		c0-3.3,2.7-5.9,6-5.9l52.2,0.4c3.3,0,5.9,2.7,5.9,6l-0.6,77c0,3.3-2.7,5.9-6,5.9l-2.5,0"/>
	<path opacity="0.3" fill="#DDDDDD" d="M40.3,10.3l0-4.1c0-3.3,2.7-5.9,6-5.9l52.2,0.4c3.3,0,5.9,2.7,5.9,6l0,4.1L40.3,10.3z"/>
	<path fill="none" stroke="#858584" stroke-linecap="round" stroke-linejoin="round" stroke-miterlimit="10" d="M40.3,10.3l0-4.1
		c0-3.3,2.7-5.9,6-5.9l52.2,0.4c3.3,0,5.9,2.7,5.9,6l0,4.1L40.3,10.3z"/>
	
		<line fill="none" stroke="#858584" stroke-linecap="round" stroke-linejoin="round" stroke-miterlimit="10" x1="47.2" y1="21.5" x2="94.2" y2="21.8"/>
	
		<line fill="none" stroke="#858584" stroke-linecap="round" stroke-linejoin="round" stroke-miterlimit="10" x1="47" y1="41.5" x2="79" y2="41.7"/>
	
		<line fill="none" stroke="#858584" stroke-linecap="round" stroke-linejoin="round" stroke-miterlimit="10" x1="47.1" y1="32.5" x2="84.1" y2="32.7"/>
	<g>
		<polygon fill="none" stroke="#3B68AC" stroke-linecap="round" stroke-linejoin="round" stroke-miterlimit="10" points="95.2,93.1 
			89.5,93.1 89.9,47.2 92.8,41.6 95.6,47.2 		"/>
		
			<line fill="none" stroke="#3B68AC" stroke-linecap="round" stroke-linejoin="round" stroke-miterlimit="10" x1="89.8" y1="48.2" x2="95.6" y2="48.2"/>
		
			<line fill="none" stroke="#3B68AC" stroke-linecap="round" stroke-linejoin="round" stroke-miterlimit="10" x1="89.6" y1="86.6" x2="95.3" y2="86.7"/>
		
			<line fill="none" stroke="#3B68AC" stroke-linecap="round" stroke-linejoin="round" stroke-miterlimit="10" x1="89.6" y1="82.6" x2="95.3" y2="82.6"/>
	</g>
	
		<rect x="89.6" y="82.6" transform="matrix(1 7.563235e-003 -7.563235e-003 1 0.6428 -0.6967)" opacity="0.3" fill="#DDDDDD" width="5.7" height="4"/>
	<g>
		
			<line fill="none" stroke="#858584" stroke-linecap="round" stroke-linejoin="round" stroke-miterlimit="10" x1="89.8" y1="48.2" x2="95.6" y2="48.2"/>
		<polygon fill="none" stroke="#858584" stroke-linecap="round" stroke-linejoin="round" stroke-miterlimit="10" points="95.2,93.1 
			89.5,93.1 89.9,47.2 92.8,41.6 95.6,47.2 		"/>
		
			<line fill="none" stroke="#858584" stroke-linecap="round" stroke-linejoin="round" stroke-miterlimit="10" x1="89.6" y1="86.6" x2="95.3" y2="86.7"/>
		
			<line fill="none" stroke="#858584" stroke-linecap="round" stroke-linejoin="round" stroke-miterlimit="10" x1="89.6" y1="82.6" x2="95.3" y2="82.6"/>
	</g>
	<g>
		<polygon opacity="0.3" fill="#DDDDDD" stroke="#848484" stroke-miterlimit="10" points="95.6,48.2 89.8,48.2 89.9,47.2 92.8,41.6 
			95.6,47.2 		"/>
		
			<line fill="#DDDDDD" stroke="#848484" stroke-linecap="round" stroke-linejoin="round" stroke-miterlimit="10" x1="89.8" y1="48.2" x2="95.6" y2="48.2"/>
		
			<line fill="#DDDDDD" stroke="#848484" stroke-linecap="round" stroke-linejoin="round" stroke-miterlimit="10" x1="89.6" y1="86.6" x2="95.3" y2="86.7"/>
		
			<line fill="#DDDDDD" stroke="#848484" stroke-linecap="round" stroke-linejoin="round" stroke-miterlimit="10" x1="89.6" y1="82.6" x2="95.3" y2="82.6"/>
	</g>
	<g>
		
			<line fill="none" stroke="#858584" stroke-linecap="round" stroke-linejoin="round" stroke-miterlimit="10" x1="27.7" y1="32.4" x2="27.6" y2="38.1"/>
		
			<line fill="none" stroke="#858584" stroke-linecap="round" stroke-linejoin="round" stroke-miterlimit="10" x1="30.4" y1="35.3" x2="24.8" y2="35.2"/>
	</g>
	<g>
		
			<line fill="none" stroke="#858584" stroke-linecap="round" stroke-linejoin="round" stroke-miterlimit="10" x1="19" y1="9.4" x2="18.9" y2="18.8"/>
		
			<line fill="none" stroke="#858584" stroke-linecap="round" stroke-linejoin="round" stroke-miterlimit="10" x1="23.6" y1="14.2" x2="14.2" y2="14.1"/>
	</g>
	<g>
		
			<rect x="1" y="50.9" transform="matrix(1 7.563235e-003 -7.563235e-003 1 0.5014 -0.2163)" fill="none" stroke="#848484" stroke-linecap="round" stroke-linejoin="round" stroke-miterlimit="10" width="55.7" height="30.6"/>
		<g>
			
				<rect x="6.8" y="57.4" transform="matrix(1 7.563235e-003 -7.563235e-003 1 0.4999 -0.1043)" opacity="0.3" fill="#DDDDDD" stroke="#848484" stroke-miterlimit="10" width="14.4" height="17.2"/>
			
				<rect x="6.8" y="57.4" transform="matrix(1 7.563235e-003 -7.563235e-003 1 0.4999 -0.1043)" fill="#DDDDDD" stroke="#848484" stroke-linecap="round" stroke-linejoin="round" stroke-miterlimit="10" width="14.4" height="17.2"/>
		</g>
		<g>
			<g>
				
					<line fill="none" stroke="#848484" stroke-linecap="round" stroke-linejoin="round" stroke-miterlimit="10" x1="27.9" y1="58.3" x2="50.9" y2="58.5"/>
				
					<line fill="none" stroke="#848484" stroke-linecap="round" stroke-linejoin="round" stroke-miterlimit="10" x1="27.9" y1="64.3" x2="43.9" y2="64.4"/>
			</g>
			<g>
				
					<circle fill="none" stroke="#848484" stroke-linecap="round" stroke-linejoin="round" stroke-miterlimit="10" cx="29.9" cy="72.2" r="1.7"/>
				
					<circle fill="none" stroke="#848484" stroke-linecap="round" stroke-linejoin="round" stroke-miterlimit="10" cx="37.6" cy="72.3" r="1.7"/>
				
					<circle fill="none" stroke="#848484" stroke-linecap="round" stroke-linejoin="round" stroke-miterlimit="10" cx="45.4" cy="72.4" r="1.7"/>
			</g>
		</g>
	</g>
</g>
</svg>
