<?xml version="1.0" encoding="utf-8"?>
<!-- Generator: Adobe Illustrator 17.1.0, SVG Export Plug-In . SVG Version: 6.00 Build 0)  -->
<!DOCTYPE svg PUBLIC "-//W3C//DTD SVG 1.1//EN" "http://www.w3.org/Graphics/SVG/1.1/DTD/svg11.dtd">
<svg version="1.1" id="Layer_1" xmlns="http://www.w3.org/2000/svg" xmlns:xlink="http://www.w3.org/1999/xlink" x="0px" y="0px"
	 viewBox="0 0 103 93" enable-background="new 0 0 103 93" xml:space="preserve">
<g>
	<path fill="none" stroke="#858584" stroke-linecap="round" stroke-linejoin="round" stroke-miterlimit="10" d="M87.2,87.9l-42.6,0
		c-3.2,0-5.8-2.6-5.8-5.8l0-1.5"/>
	<path fill="none" stroke="#858584" stroke-linecap="round" stroke-linejoin="round" stroke-miterlimit="10" d="M38.9,50.9V7.4
		c0-3.2,2.6-5.8,5.8-5.8h50.6c3.2,0,5.8,2.6,5.8,5.8v74.7c0,3.2-2.6,5.8-5.8,5.8h-2.5"/>
	<path opacity="0.3" fill="#DDDDDD" d="M38.9,11.5v-4c0-3.2,2.6-5.8,5.8-5.8h50.6c3.2,0,5.8,2.6,5.8,5.8v4H38.9z"/>
	<path fill="none" stroke="#858584" stroke-linecap="round" stroke-linejoin="round" stroke-miterlimit="10" d="M38.9,11.5v-4
		c0-3.2,2.6-5.8,5.8-5.8h50.6c3.2,0,5.8,2.6,5.8,5.8v4H38.9z"/>
	
		<line fill="none" stroke="#858584" stroke-linecap="round" stroke-linejoin="round" stroke-miterlimit="10" x1="46" y1="22.5" x2="91" y2="22.5"/>
	
		<line fill="none" stroke="#858584" stroke-linecap="round" stroke-linejoin="round" stroke-miterlimit="10" x1="46" y1="41.5" x2="77" y2="41.5"/>
	
		<line fill="none" stroke="#858584" stroke-linecap="round" stroke-linejoin="round" stroke-miterlimit="10" x1="46" y1="32.5" x2="82" y2="32.5"/>
	<g>
		<polygon fill="none" stroke="#3B68AC" stroke-linecap="round" stroke-linejoin="round" stroke-miterlimit="10" points="92.8,91.4 
			87.2,91.4 87.2,46.9 90,41.4 92.8,46.9 		"/>
		
			<line fill="none" stroke="#3B68AC" stroke-linecap="round" stroke-linejoin="round" stroke-miterlimit="10" x1="87.2" y1="47.9" x2="92.8" y2="47.9"/>
		
			<line fill="none" stroke="#3B68AC" stroke-linecap="round" stroke-linejoin="round" stroke-miterlimit="10" x1="87.2" y1="85.2" x2="92.8" y2="85.2"/>
		
			<line fill="none" stroke="#3B68AC" stroke-linecap="round" stroke-linejoin="round" stroke-miterlimit="10" x1="87.2" y1="81.3" x2="92.8" y2="81.3"/>
	</g>
	<rect x="87.2" y="81.3" opacity="0.3" fill="#DDDDDD" width="5.6" height="3.9"/>
	<g>
		
			<line fill="none" stroke="#3B68AC" stroke-linecap="round" stroke-linejoin="round" stroke-miterlimit="10" x1="87.2" y1="47.9" x2="92.8" y2="47.9"/>
		<polygon fill="none" stroke="#858584" stroke-linecap="round" stroke-linejoin="round" stroke-miterlimit="10" points="92.8,91.4 
			87.2,91.4 87.2,46.9 90,41.4 92.8,46.9 		"/>
		
			<line fill="none" stroke="#3B68AC" stroke-linecap="round" stroke-linejoin="round" stroke-miterlimit="10" x1="87.2" y1="85.2" x2="92.8" y2="85.2"/>
		
			<line fill="none" stroke="#3B68AC" stroke-linecap="round" stroke-linejoin="round" stroke-miterlimit="10" x1="87.2" y1="81.3" x2="92.8" y2="81.3"/>
	</g>
	<g>
		<polygon opacity="0.3" fill="#DDDDDD" stroke="#848484" stroke-miterlimit="10" points="92.8,47.9 87.2,47.9 87.2,46.9 90,41.4 
			92.8,46.9 		"/>
		
			<line fill="none" stroke="#848484" stroke-linecap="round" stroke-linejoin="round" stroke-miterlimit="10" x1="87.2" y1="47.9" x2="92.8" y2="47.9"/>
		
			<line fill="none" stroke="#848484" stroke-linecap="round" stroke-linejoin="round" stroke-miterlimit="10" x1="87.2" y1="85.2" x2="92.8" y2="85.2"/>
		
			<line fill="none" stroke="#848484" stroke-linecap="round" stroke-linejoin="round" stroke-miterlimit="10" x1="87.2" y1="81.3" x2="92.8" y2="81.3"/>
	</g>
	<g>
		
			<line fill="none" stroke="#858584" stroke-linecap="round" stroke-linejoin="round" stroke-miterlimit="10" x1="26.8" y1="33" x2="26.8" y2="38.5"/>
		
			<line fill="none" stroke="#858584" stroke-linecap="round" stroke-linejoin="round" stroke-miterlimit="10" x1="29.5" y1="35.8" x2="24.1" y2="35.8"/>
	</g>
	<g>
		
			<line fill="none" stroke="#858584" stroke-linecap="round" stroke-linejoin="round" stroke-miterlimit="10" x1="18.2" y1="10.8" x2="18.2" y2="19.9"/>
		
			<line fill="none" stroke="#858584" stroke-linecap="round" stroke-linejoin="round" stroke-miterlimit="10" x1="22.7" y1="15.3" x2="13.6" y2="15.3"/>
	</g>
	<g>
		
			<rect x="1.2" y="50.9" fill="none" stroke="#848484" stroke-linecap="round" stroke-linejoin="round" stroke-miterlimit="10" width="54" height="29.7"/>
		<g>
			<rect x="6.8" y="57.4" opacity="0.3" fill="#DDDDDD" stroke="#848484" stroke-miterlimit="10" width="14" height="16.7"/>
			
				<rect x="6.8" y="57.4" fill="none" stroke="#848484" stroke-linecap="round" stroke-linejoin="round" stroke-miterlimit="10" width="14" height="16.7"/>
		</g>
		<g>
			<g>
				
					<line fill="none" stroke="#848484" stroke-linecap="round" stroke-linejoin="round" stroke-miterlimit="10" x1="27" y1="58.5" x2="50" y2="58.5"/>
				
					<line fill="none" stroke="#848484" stroke-linecap="round" stroke-linejoin="round" stroke-miterlimit="10" x1="27" y1="63.5" x2="43" y2="63.5"/>
			</g>
			<g>
				
					<circle fill="none" stroke="#848484" stroke-linecap="round" stroke-linejoin="round" stroke-miterlimit="10" cx="29.2" cy="71.6" r="1.7"/>
				
					<circle fill="none" stroke="#848484" stroke-linecap="round" stroke-linejoin="round" stroke-miterlimit="10" cx="36.7" cy="71.6" r="1.7"/>
				
					<circle fill="none" stroke="#848484" stroke-linecap="round" stroke-linejoin="round" stroke-miterlimit="10" cx="44.3" cy="71.6" r="1.7"/>
			</g>
		</g>
	</g>
</g>
</svg>
