<?xml version="1.0" encoding="utf-8"?>
<!-- Generator: Adobe Illustrator 17.1.0, SVG Export Plug-In . SVG Version: 6.00 Build 0)  -->
<!DOCTYPE svg PUBLIC "-//W3C//DTD SVG 1.1//EN" "http://www.w3.org/Graphics/SVG/1.1/DTD/svg11.dtd">
<svg version="1.1" id="Layer_1" xmlns="http://www.w3.org/2000/svg" xmlns:xlink="http://www.w3.org/1999/xlink" x="0px" y="0px"
	 viewBox="0 0 104 100" enable-background="new 0 0 104 100" xml:space="preserve">
<g>
	<g>
		<polyline fill="none" stroke="#848484" stroke-linecap="round" stroke-linejoin="round" stroke-miterlimit="10" points="52,24.6 
			54.1,15.6 102,27.1 87.5,91.6 76.7,89 		"/>
		<path fill="none" stroke="#848484" stroke-linecap="round" stroke-linejoin="round" stroke-miterlimit="10" d="M58.1,63.1
			C69.7,72.5,76.7,89,76.7,89l-15.2-3.6"/>
		<path opacity="0.3" fill="#C4C4C4" stroke="#848484" stroke-miterlimit="10" d="M76.7,89c0,0-2-4.8-5.6-10.6c0,0,7.2-5.5,20.4-4.1
			l-3.9,17.3L76.7,89z"/>
		<path fill="none" stroke="#848484" stroke-linecap="round" stroke-linejoin="round" stroke-miterlimit="10" d="M76.7,89
			c0,0-2-4.8-5.6-10.6c0,0,7.2-5.5,20.4-4.1l-3.9,17.3L76.7,89z"/>
		<path opacity="0.3" fill="#C4C4C4" stroke="#848484" stroke-miterlimit="10" d="M90,40.8c-0.8,3.6-4.3,5.8-7.8,5
			c-3.5-0.8-5.7-4.4-4.9-8c0.8-3.6,4.3-5.8,7.8-5C88.6,33.6,90.8,37.2,90,40.8z"/>
		<path fill="none" stroke="#848484" stroke-linecap="round" stroke-linejoin="round" stroke-miterlimit="10" d="M90,40.8
			c-0.8,3.6-4.3,5.8-7.8,5c-3.5-0.8-5.7-4.4-4.9-8c0.8-3.6,4.3-5.8,7.8-5C88.6,33.6,90.8,37.2,90,40.8z"/>
	</g>
	<polygon fill="none" stroke="#858584" stroke-linecap="round" stroke-linejoin="round" stroke-miterlimit="10" points="62.2,90.1 
		11.2,98.5 1,32.6 52,24.2 	"/>
	<g>
		
			<line fill="none" stroke="#858584" stroke-linecap="round" stroke-linejoin="round" stroke-miterlimit="10" x1="12.4" y1="1.5" x2="12.4" y2="9.6"/>
		
			<line fill="none" stroke="#858584" stroke-linecap="round" stroke-linejoin="round" stroke-miterlimit="10" x1="17" y1="5.6" x2="7.9" y2="5.6"/>
	</g>
	<g>
		
			<line fill="none" stroke="#858584" stroke-linecap="round" stroke-linejoin="round" stroke-miterlimit="10" x1="33.1" y1="9.8" x2="33.1" y2="15.2"/>
		
			<line fill="none" stroke="#858584" stroke-linecap="round" stroke-linejoin="round" stroke-miterlimit="10" x1="35.8" y1="12.5" x2="30.4" y2="12.5"/>
	</g>
	<g>
		<path fill="none" stroke="#848484" stroke-linecap="round" stroke-linejoin="round" stroke-miterlimit="10" d="M30,48.6
			c-0.7,1.1-1.4,3-1.4,5.8l1.1,32.9c0,1.1,0.6,2,1.3,2h0.4c0.7,0,1.3-0.9,1.3-2l1.1-32.9c0-2.8-0.7-4.7-1.4-5.8H30z"/>
		<path opacity="0.3" fill="#C4C4C4" stroke="#848484" stroke-miterlimit="10" d="M28.1,44.4c0,2.3,1.4,4.2,3.2,4.2
			c1.7,0,3.9-2,3.2-4.2c-1.2-4-0.5-7.2-0.5-7.2S28.1,42,28.1,44.4z"/>
		<path fill="none" stroke="#848484" stroke-linecap="round" stroke-linejoin="round" stroke-miterlimit="10" d="M28.1,44.4
			c0,2.3,1.4,4.2,3.2,4.2c1.7,0,3.9-2,3.2-4.2c-1.2-4-0.5-7.2-0.5-7.2S28.1,42,28.1,44.4z"/>
	</g>
	<polygon opacity="0.3" fill="#C4C4C4" points="33.8,58.7 28.8,58.7 28.7,55.7 33.9,55.7 	"/>
	<polygon fill="none" stroke="#858584" stroke-linecap="round" stroke-linejoin="round" stroke-miterlimit="10" points="33.7,58.7 
		28.8,58.7 28.7,55.7 33.8,55.7 	"/>
</g>
</svg>
