<?xml version="1.0" encoding="utf-8"?>
<!-- Generator: Adobe Illustrator 17.1.0, SVG Export Plug-In . SVG Version: 6.00 Build 0)  -->
<!DOCTYPE svg PUBLIC "-//W3C//DTD SVG 1.1//EN" "http://www.w3.org/Graphics/SVG/1.1/DTD/svg11.dtd">
<svg version="1.1" id="Layer_1" xmlns="http://www.w3.org/2000/svg" xmlns:xlink="http://www.w3.org/1999/xlink" x="0px" y="0px"
	 viewBox="0 0 109 90" enable-background="new 0 0 109 90" xml:space="preserve">
<g>
	<polyline opacity="0.3" fill="#DDDDDD" points="82.5,35.5 82.5,27.4 88.9,27.4 88.9,35.5 	"/>
	<polyline fill="none" stroke="#858584" stroke-linecap="round" stroke-linejoin="round" stroke-miterlimit="10" points="82.5,27.4 
		88.9,27.4 88.9,35.5 	"/>
	<polyline opacity="0.3" fill="#DDDDDD" points="28.4,35.5 28.4,27.4 34.8,27.4 34.8,35.5 	"/>
	<polyline fill="none" stroke="#858584" stroke-linecap="round" stroke-linejoin="round" stroke-miterlimit="10" points="28.3,35.5 
		28.3,27.4 34.7,27.4 	"/>
	<polyline fill="none" stroke="#858584" stroke-linecap="round" stroke-linejoin="round" stroke-miterlimit="10" points="39.3,35.5 
		34.7,35.5 34.7,6.6 82.5,6.6 82.5,35.5 78.3,35.5 	"/>
	
		<line fill="#FFFFFF" stroke="#858584" stroke-linecap="round" stroke-linejoin="round" stroke-miterlimit="10" x1="39" y1="13.5" x2="72" y2="13.5"/>
	
		<line fill="#FFFFFF" stroke="#858584" stroke-linecap="round" stroke-linejoin="round" stroke-miterlimit="10" x1="39" y1="20.5" x2="75" y2="20.5"/>
	<path opacity="0.3" fill="#DDDDDD" d="M105.4,46.8L105.4,46.8c1.6,0,2.9-1.3,2.9-2.9v-7.3c0-1.6-1.3-2.9-2.9-2.9l0,0
		c-1.6,0-2.9,1.3-2.9,2.9v7.3C102.5,45.5,103.8,46.8,105.4,46.8z"/>
	<path fill="none" stroke="#858584" stroke-linecap="round" stroke-linejoin="round" stroke-miterlimit="10" d="M105.4,46.8
		L105.4,46.8c1.6,0,2.9-1.3,2.9-2.9v-7.3c0-1.6-1.3-2.9-2.9-2.9l0,0c-1.6,0-2.9,1.3-2.9,2.9v7.3C102.5,45.5,103.8,46.8,105.4,46.8z"
		/>
	<path opacity="0.3" fill="#DDDDDD" d="M11.6,46.8L11.6,46.8c1.6,0,2.9-1.3,2.9-2.9v-7.3c0-1.6-1.3-2.9-2.9-2.9h0
		c-1.6,0-2.9,1.3-2.9,2.9v7.3C8.8,45.5,10,46.8,11.6,46.8z"/>
	<path fill="none" stroke="#858584" stroke-linecap="round" stroke-linejoin="round" stroke-miterlimit="10" d="M11.6,46.8
		L11.6,46.8c1.6,0,2.9-1.3,2.9-2.9v-7.3c0-1.6-1.3-2.9-2.9-2.9h0c-1.6,0-2.9,1.3-2.9,2.9v7.3C8.8,45.5,10,46.8,11.6,46.8z"/>
	<path opacity="0.3" fill="#DDDDDD" d="M99.9,89.2H17.2c-1.3,0-2.4-1.1-2.4-2.4l0,0c0-1.3,1.1-2.4,2.4-2.4h82.7
		c1.3,0,2.4,1.1,2.4,2.4l0,0C102.3,88.1,101.2,89.2,99.9,89.2z"/>
	<path fill="none" stroke="#858584" stroke-linecap="round" stroke-linejoin="round" stroke-miterlimit="10" d="M102.5,35.5h-24v0.3
		c0,1.7-1.6,2.7-3.3,2.7H41.6c-1.7,0-2.1-1-2.1-2.7v-0.3h-25v50v-0.2c0,0.1,0,0,0,0.1c0,2.1,1.2,4.1,3.3,4.1h80.4
		c2.1,0,4.3-1.8,4.3-3.9c0-0.1,0-0.3,0-0.3v0.3V35.5z"/>
	<g>
		<path opacity="0.3" fill="#DDDDDD" stroke="#848484" stroke-miterlimit="10" d="M25.5,48.5L25.5,48.5c-1.3,0-2.4-1.1-2.4-2.4v0
			c0-1.3,1.1-2.4,2.4-2.4h0c1.3,0,2.4,1.1,2.4,2.4v0C27.9,47.4,26.8,48.5,25.5,48.5z"/>
		<path opacity="0.3" fill="#DDDDDD" stroke="#848484" stroke-miterlimit="10" d="M47.2,48.5L47.2,48.5c-1.3,0-2.4-1.1-2.4-2.4v0
			c0-1.3,1.1-2.4,2.4-2.4h0c1.3,0,2.4,1.1,2.4,2.4v0C49.6,47.4,48.5,48.5,47.2,48.5z"/>
		<path opacity="0.3" fill="#DDDDDD" stroke="#848484" stroke-miterlimit="10" d="M68.9,48.5L68.9,48.5c-1.3,0-2.4-1.1-2.4-2.4v0
			c0-1.3,1.1-2.4,2.4-2.4h0c1.3,0,2.4,1.1,2.4,2.4v0C71.2,47.4,70.2,48.5,68.9,48.5z"/>
		<path opacity="0.3" fill="#DDDDDD" stroke="#848484" stroke-miterlimit="10" d="M90.5,48.5L90.5,48.5c-1.3,0-2.4-1.1-2.4-2.4v0
			c0-1.3,1.1-2.4,2.4-2.4l0,0c1.3,0,2.4,1.1,2.4,2.4v0C92.9,47.4,91.8,48.5,90.5,48.5z"/>
		<path fill="none" stroke="#848484" stroke-linecap="round" stroke-linejoin="round" stroke-miterlimit="10" d="M25.5,48.5
			L25.5,48.5c-1.3,0-2.4-1.1-2.4-2.4v0c0-1.3,1.1-2.4,2.4-2.4h0c1.3,0,2.4,1.1,2.4,2.4v0C27.9,47.4,26.8,48.5,25.5,48.5z"/>
		<path fill="none" stroke="#848484" stroke-linecap="round" stroke-linejoin="round" stroke-miterlimit="10" d="M36.4,48.5
			L36.4,48.5c-1.3,0-2.4-1.1-2.4-2.4v0c0-1.3,1.1-2.4,2.4-2.4h0c1.3,0,2.4,1.1,2.4,2.4v0C38.7,47.4,37.7,48.5,36.4,48.5z"/>
		<path fill="none" stroke="#848484" stroke-linecap="round" stroke-linejoin="round" stroke-miterlimit="10" d="M47.2,48.5
			L47.2,48.5c-1.3,0-2.4-1.1-2.4-2.4v0c0-1.3,1.1-2.4,2.4-2.4h0c1.3,0,2.4,1.1,2.4,2.4v0C49.6,47.4,48.5,48.5,47.2,48.5z"/>
		<path fill="none" stroke="#848484" stroke-linecap="round" stroke-linejoin="round" stroke-miterlimit="10" d="M58,48.5L58,48.5
			c-1.3,0-2.4-1.1-2.4-2.4v0c0-1.3,1.1-2.4,2.4-2.4h0c1.3,0,2.4,1.1,2.4,2.4v0C60.4,47.4,59.3,48.5,58,48.5z"/>
		<path fill="none" stroke="#848484" stroke-linecap="round" stroke-linejoin="round" stroke-miterlimit="10" d="M68.9,48.5
			L68.9,48.5c-1.3,0-2.4-1.1-2.4-2.4v0c0-1.3,1.1-2.4,2.4-2.4h0c1.3,0,2.4,1.1,2.4,2.4v0C71.2,47.4,70.2,48.5,68.9,48.5z"/>
		<path fill="none" stroke="#848484" stroke-linecap="round" stroke-linejoin="round" stroke-miterlimit="10" d="M79.7,48.5
			L79.7,48.5c-1.3,0-2.4-1.1-2.4-2.4v0c0-1.3,1.1-2.4,2.4-2.4h0c1.3,0,2.4,1.1,2.4,2.4v0C82.1,47.4,81,48.5,79.7,48.5z"/>
		<path fill="none" stroke="#848484" stroke-linecap="round" stroke-linejoin="round" stroke-miterlimit="10" d="M90.5,48.5
			L90.5,48.5c-1.3,0-2.4-1.1-2.4-2.4v0c0-1.3,1.1-2.4,2.4-2.4l0,0c1.3,0,2.4,1.1,2.4,2.4v0C92.9,47.4,91.8,48.5,90.5,48.5z"/>
	</g>
	<g>
		<path fill="none" stroke="#858584" stroke-linecap="round" stroke-linejoin="round" stroke-miterlimit="10" d="M20.5,59.5
			L20.5,59.5c-1.3,0-2.4-1.1-2.4-2.4v0c0-1.3,1.1-2.4,2.4-2.4h0c1.3,0,2.4,1.1,2.4,2.4v0C22.9,58.4,21.8,59.5,20.5,59.5z"/>
		<path fill="none" stroke="#858584" stroke-linecap="round" stroke-linejoin="round" stroke-miterlimit="10" d="M31.4,59.5
			L31.4,59.5c-1.3,0-2.4-1.1-2.4-2.4v0c0-1.3,1.1-2.4,2.4-2.4h0c1.3,0,2.4,1.1,2.4,2.4v0C33.7,58.4,32.7,59.5,31.4,59.5z"/>
		<path fill="none" stroke="#858584" stroke-linecap="round" stroke-linejoin="round" stroke-miterlimit="10" d="M42.2,59.5
			L42.2,59.5c-1.3,0-2.4-1.1-2.4-2.4v0c0-1.3,1.1-2.4,2.4-2.4h0c1.3,0,2.4,1.1,2.4,2.4v0C44.6,58.4,43.5,59.5,42.2,59.5z"/>
		<path fill="none" stroke="#858584" stroke-linecap="round" stroke-linejoin="round" stroke-miterlimit="10" d="M53,59.5L53,59.5
			c-1.3,0-2.4-1.1-2.4-2.4v0c0-1.3,1.1-2.4,2.4-2.4h0c1.3,0,2.4,1.1,2.4,2.4v0C55.4,58.4,54.3,59.5,53,59.5z"/>
		<path fill="none" stroke="#858584" stroke-linecap="round" stroke-linejoin="round" stroke-miterlimit="10" d="M63.9,59.5
			L63.9,59.5c-1.3,0-2.4-1.1-2.4-2.4v0c0-1.3,1.1-2.4,2.4-2.4h0c1.3,0,2.4,1.1,2.4,2.4v0C66.2,58.4,65.2,59.5,63.9,59.5z"/>
		<path fill="none" stroke="#858584" stroke-linecap="round" stroke-linejoin="round" stroke-miterlimit="10" d="M74.7,59.5
			L74.7,59.5c-1.3,0-2.4-1.1-2.4-2.4v0c0-1.3,1.1-2.4,2.4-2.4h0c1.3,0,2.4,1.1,2.4,2.4v0C77.1,58.4,76,59.5,74.7,59.5z"/>
		<path fill="none" stroke="#858584" stroke-linecap="round" stroke-linejoin="round" stroke-miterlimit="10" d="M85.5,59.5
			L85.5,59.5c-1.3,0-2.4-1.1-2.4-2.4v0c0-1.3,1.1-2.4,2.4-2.4l0,0c1.3,0,2.4,1.1,2.4,2.4v0C87.9,58.4,86.8,59.5,85.5,59.5z"/>
		<path fill="none" stroke="#858584" stroke-linecap="round" stroke-linejoin="round" stroke-miterlimit="10" d="M95.5,59.5
			L95.5,59.5c-1.3,0-2.4-1.1-2.4-2.4v0c0-1.3,1.1-2.4,2.4-2.4l0,0c1.3,0,2.4,1.1,2.4,2.4v0C97.9,58.4,96.8,59.5,95.5,59.5z"/>
	</g>
	<g>
		<path fill="none" stroke="#858584" stroke-linecap="round" stroke-linejoin="round" stroke-miterlimit="10" d="M25.5,70.5
			L25.5,70.5c-1.3,0-2.4-1.1-2.4-2.4l0,0c0-1.3,1.1-2.4,2.4-2.4h0c1.3,0,2.4,1.1,2.4,2.4l0,0C27.9,69.4,26.8,70.5,25.5,70.5z"/>
		<path fill="none" stroke="#858584" stroke-linecap="round" stroke-linejoin="round" stroke-miterlimit="10" d="M36.4,70.5
			L36.4,70.5c-1.3,0-2.4-1.1-2.4-2.4l0,0c0-1.3,1.1-2.4,2.4-2.4h0c1.3,0,2.4,1.1,2.4,2.4l0,0C38.7,69.4,37.7,70.5,36.4,70.5z"/>
		<path fill="none" stroke="#858584" stroke-linecap="round" stroke-linejoin="round" stroke-miterlimit="10" d="M47.2,70.5
			L47.2,70.5c-1.3,0-2.4-1.1-2.4-2.4l0,0c0-1.3,1.1-2.4,2.4-2.4h0c1.3,0,2.4,1.1,2.4,2.4l0,0C49.6,69.4,48.5,70.5,47.2,70.5z"/>
		<path fill="none" stroke="#858584" stroke-linecap="round" stroke-linejoin="round" stroke-miterlimit="10" d="M58,70.5L58,70.5
			c-1.3,0-2.4-1.1-2.4-2.4l0,0c0-1.3,1.1-2.4,2.4-2.4h0c1.3,0,2.4,1.1,2.4,2.4l0,0C60.4,69.4,59.3,70.5,58,70.5z"/>
		<path fill="none" stroke="#858584" stroke-linecap="round" stroke-linejoin="round" stroke-miterlimit="10" d="M68.9,70.5
			L68.9,70.5c-1.3,0-2.4-1.1-2.4-2.4l0,0c0-1.3,1.1-2.4,2.4-2.4h0c1.3,0,2.4,1.1,2.4,2.4l0,0C71.2,69.4,70.2,70.5,68.9,70.5z"/>
		<path fill="none" stroke="#858584" stroke-linecap="round" stroke-linejoin="round" stroke-miterlimit="10" d="M79.7,70.5
			L79.7,70.5c-1.3,0-2.4-1.1-2.4-2.4l0,0c0-1.3,1.1-2.4,2.4-2.4h0c1.3,0,2.4,1.1,2.4,2.4l0,0C82.1,69.4,81,70.5,79.7,70.5z"/>
		<path fill="none" stroke="#858584" stroke-linecap="round" stroke-linejoin="round" stroke-miterlimit="10" d="M90.5,70.5
			L90.5,70.5c-1.3,0-2.4-1.1-2.4-2.4l0,0c0-1.3,1.1-2.4,2.4-2.4l0,0c1.3,0,2.4,1.1,2.4,2.4l0,0C92.9,69.4,91.8,70.5,90.5,70.5z"/>
	</g>
	<path opacity="0.3" fill="#DDDDDD" d="M77.9,80.5H38.1c-1.3,0-2.4-1.1-2.4-2.4l0,0c0-1.3,1.1-2.4,2.4-2.4h39.8
		c1.3,0,2.4,1.1,2.4,2.4l0,0C80.3,79.4,79.2,80.5,77.9,80.5z"/>
	<path fill="none" stroke="#858584" stroke-linecap="round" stroke-linejoin="round" stroke-miterlimit="10" d="M77.9,80.5H38.1
		c-1.3,0-2.4-1.1-2.4-2.4l0,0c0-1.3,1.1-2.4,2.4-2.4h39.8c1.3,0,2.4,1.1,2.4,2.4l0,0C80.3,79.4,79.2,80.5,77.9,80.5z"/>
	<g>
		
			<line fill="none" stroke="#858584" stroke-linecap="round" stroke-linejoin="round" stroke-miterlimit="10" x1="4.8" y1="-0.2" x2="4.8" y2="9.2"/>
		
			<line fill="none" stroke="#858584" stroke-linecap="round" stroke-linejoin="round" stroke-miterlimit="10" x1="0.2" y1="4.5" x2="9.5" y2="4.5"/>
	</g>
	<g>
		
			<line fill="none" stroke="#858584" stroke-linecap="round" stroke-linejoin="round" stroke-miterlimit="10" x1="102.3" y1="1.9" x2="102.3" y2="11.3"/>
		
			<line fill="none" stroke="#858584" stroke-linecap="round" stroke-linejoin="round" stroke-miterlimit="10" x1="97.6" y1="6.6" x2="106.9" y2="6.6"/>
	</g>
	<g>
		
			<line fill="none" stroke="#858584" stroke-linecap="round" stroke-linejoin="round" stroke-miterlimit="10" x1="15.5" y1="14.8" x2="15.5" y2="20.4"/>
		
			<line fill="none" stroke="#858584" stroke-linecap="round" stroke-linejoin="round" stroke-miterlimit="10" x1="12.7" y1="17.6" x2="18.3" y2="17.6"/>
	</g>
</g>
</svg>
