<?xml version="1.0" encoding="utf-8"?>
<!-- Generator: Adobe Illustrator 17.1.0, SVG Export Plug-In . SVG Version: 6.00 Build 0)  -->
<!DOCTYPE svg PUBLIC "-//W3C//DTD SVG 1.1//EN" "http://www.w3.org/Graphics/SVG/1.1/DTD/svg11.dtd">
<svg version="1.1" id="Layer_1" xmlns="http://www.w3.org/2000/svg" xmlns:xlink="http://www.w3.org/1999/xlink" x="0px" y="0px"
	 viewBox="0 0 133 72" enable-background="new 0 0 133 72" xml:space="preserve">
<g>
	<path fill="none" stroke="#858584" stroke-linecap="round" stroke-linejoin="round" stroke-miterlimit="10" d="M27.6,28.7V5.4
		c0-2,1.6-3.6,3.6-3.6h71c2,0,3.6,1.6,3.6,3.6v10.5"/>
	<path fill="none" stroke="#858584" stroke-linecap="round" stroke-linejoin="round" stroke-miterlimit="10" d="M105.9,50.2V68
		c0,2-1.6,3.6-3.6,3.6h-71c-2,0-3.6-1.6-3.6-3.6V55.1"/>
	<path opacity="0.3" fill="#C4C4C4" d="M27.6,9.2V5.5c0-2.1,1.7-3.7,3.7-3.7h70.8c2.1,0,3.7,1.7,3.7,3.7v3.6H27.6z"/>
	<path fill="none" stroke="#858584" stroke-linecap="round" stroke-linejoin="round" stroke-miterlimit="10" d="M27.6,9.2V5.5
		c0-2.1,1.7-3.7,3.7-3.7h70.8c2.1,0,3.7,1.7,3.7,3.7v3.6H27.6z"/>
	<circle fill="#858584" cx="32.4" cy="5.5" r="0.8"/>
	<circle fill="#858584" cx="35.7" cy="5.5" r="0.8"/>
	<path opacity="0.3" fill="#C4C4C4" d="M99.7,24.4h-66c-1.3,0-2.4-1.1-2.4-2.4v-4.7c0-1.3,1.1-2.4,2.4-2.4h66c1.3,0,2.4,1.1,2.4,2.4
		v4.7C102.1,23.4,101,24.4,99.7,24.4z"/>
	<path opacity="0.3" fill="#C4C4C4" d="M99.7,40.7h-66c-1.3,0-2.4-1.1-2.4-2.4v-4.7c0-1.3,1.1-2.4,2.4-2.4h66c1.3,0,2.4,1.1,2.4,2.4
		v4.7C102.1,39.7,101,40.7,99.7,40.7z"/>
	<path opacity="0.3" fill="#C4C4C4" d="M99.7,57h-66c-1.3,0-2.4-1.1-2.4-2.4v-4.7c0-1.3,1.1-2.4,2.4-2.4h66c1.3,0,2.4,1.1,2.4,2.4
		v4.7C102.1,56,101,57,99.7,57z"/>
	<circle fill="#858584" cx="39" cy="5.5" r="0.8"/>
	<path fill="#FFFFFF" stroke="#858584" stroke-linecap="round" stroke-linejoin="round" stroke-miterlimit="10" d="M122.1,15.5H90.8
		c-5.4,0-10.3,4.9-10.3,10.3V40c0,5.4,4,10.2,10,10.2l0,0v8.9l10-8.6h21.6c5.4,0,9.4-5.1,9.4-10.5V25.8
		C131.5,20.4,127.5,15.5,122.1,15.5z"/>
	<path fill="#FFFFFF" stroke="#3B68AC" stroke-linecap="round" stroke-linejoin="round" stroke-miterlimit="10" d="M24.6,28.5H49
		c4.2,0,6.5,3.4,6.5,7.6v11.2c0,4-3,7.4-6.9,7.7c0,0-0.1,0-0.1,0v7.3l-7-6.8H24.6c-4.2,0-8.1-4-8.1-8.2V36.1
		C16.5,31.9,20.4,28.5,24.6,28.5z"/>
	<path fill="none" stroke="#858584" stroke-linecap="round" stroke-linejoin="round" stroke-miterlimit="10" d="M24.6,28.5H49
		c4.2,0,6.5,3.4,6.5,7.6v11.2c0,4-3,7.4-6.9,7.7c0,0-0.1,0-0.1,0v7.3l-7-6.8H24.6c-4.2,0-8.1-4-8.1-8.2V36.1
		C16.5,31.9,20.4,28.5,24.6,28.5z"/>
	
		<line fill="#FFFFFF" stroke="#858584" stroke-linecap="round" stroke-linejoin="round" stroke-miterlimit="10" x1="23" y1="35.5" x2="48" y2="35.5"/>
	
		<line fill="#FFFFFF" stroke="#858584" stroke-linecap="round" stroke-linejoin="round" stroke-miterlimit="10" x1="23" y1="41.5" x2="44" y2="41.5"/>
	
		<line fill="#FFFFFF" stroke="#858584" stroke-linecap="round" stroke-linejoin="round" stroke-miterlimit="10" x1="23" y1="47.5" x2="37" y2="47.5"/>
	
		<line fill="#FFFFFF" stroke="#858584" stroke-linecap="round" stroke-linejoin="round" stroke-miterlimit="10" x1="90" y1="24.5" x2="122" y2="24.5"/>
	
		<line fill="#FFFFFF" stroke="#858584" stroke-linecap="round" stroke-linejoin="round" stroke-miterlimit="10" x1="90" y1="31.5" x2="113" y2="31.5"/>
	
		<line fill="#FFFFFF" stroke="#858584" stroke-linecap="round" stroke-linejoin="round" stroke-miterlimit="10" x1="90" y1="38.5" x2="105" y2="38.5"/>
	<g>
		
			<line fill="none" stroke="#858584" stroke-linecap="round" stroke-linejoin="round" stroke-miterlimit="10" x1="5.5" y1="1.7" x2="5.5" y2="10.9"/>
		
			<line fill="none" stroke="#858584" stroke-linecap="round" stroke-linejoin="round" stroke-miterlimit="10" x1="1" y1="6.3" x2="10.1" y2="6.3"/>
	</g>
	<g>
		
			<line fill="none" stroke="#858584" stroke-linecap="round" stroke-linejoin="round" stroke-miterlimit="10" x1="16" y1="16.3" x2="16" y2="21.8"/>
		
			<line fill="none" stroke="#858584" stroke-linecap="round" stroke-linejoin="round" stroke-miterlimit="10" x1="13.3" y1="19.1" x2="18.8" y2="19.1"/>
	</g>
	<g>
		
			<line fill="none" stroke="#858584" stroke-linecap="round" stroke-linejoin="round" stroke-miterlimit="10" x1="125.2" y1="59.6" x2="125.2" y2="68.8"/>
		
			<line fill="none" stroke="#858584" stroke-linecap="round" stroke-linejoin="round" stroke-miterlimit="10" x1="120.7" y1="64.2" x2="129.8" y2="64.2"/>
	</g>
</g>
</svg>
